<svg width="272" height="272" viewBox="0 0 272 272" fill="none" xmlns="http://www.w3.org/2000/svg">
<rect width="272" height="272" rx="12" fill="#324158"/>
<rect x="8" y="8" width="48" height="48" rx="8" fill="#00D3F2"/>
<rect x="164" y="8" width="48" height="48" rx="8" fill="#00D3F2"/>
<rect x="8" y="60" width="48" height="48" rx="8" fill="#00D3F2"/>
<rect x="60" y="60" width="48" height="48" rx="8" fill="#00D3F2"/>
<rect x="164" y="60" width="48" height="48" rx="8" fill="#00D3F2"/>
<rect x="216" y="60" width="48" height="48" rx="8" fill="#00D3F2"/>
<rect x="8" y="112" width="48" height="48" rx="8" fill="#00D3F2"/>
<rect x="60" y="112" width="48" height="48" rx="8" fill="#00D3F2"/>
<rect x="164" y="112" width="48" height="48" rx="8" fill="#00D3F2"/>
<rect x="8" y="164" width="48" height="48" rx="8" fill="#00D3F2"/>
<rect x="60" y="164" width="48" height="48" rx="8" fill="#00D3F2"/>
<rect x="112" y="164" width="48" height="48" rx="8" fill="#00D3F2"/>
<rect x="8" y="216" width="48" height="48" rx="8" fill="#00D3F2"/>
<rect x="60" y="216" width="48" height="48" rx="8" fill="#00D3F2"/>
<rect x="112" y="216" width="48" height="48" rx="8" fill="#00D3F2"/>
<rect x="216" y="216" width="48" height="48" rx="8" fill="#00D3F2"/>
</svg>
